<svg width="870" height="618" viewBox="0 0 870 618" fill="none" xmlns="http://www.w3.org/2000/svg">
<g opacity="0.29827">
<path d="M1008.08 285.448L443.182 -234.858V-625.19L28.1096 -648C24.9043 -640.456 4.36709 -618.714 7.57176 -606.596C11.43 -592.102 30.8387 -596.735 36.4776 -587.409C43.0661 -576.42 31.7291 -531.749 28.3457 -518.86C21.8759 -494.445 7.09676 -474.665 2.82235 -450.25C-4.35982 -409.263 10.1824 -412.53 37.7242 -386.927C84.141 -343.742 46.9244 -298.952 58.6176 -248.223C68.1146 -206.878 109.605 -185.554 124.8 -144.211C136.553 -112.37 152.697 -104.233 177.746 -80.9466C177.153 -95.0843 164.51 -136.785 188.253 -133.102C211.817 -129.478 202.736 -94.6693 207.247 -80.1147C211.045 -67.9966 237.933 -43.761 215.616 -32.593C208.196 -28.91 187.066 -43.5825 178.577 -47.503C184.572 -28.7908 180.774 -9.36703 190.271 8.51331C201.608 29.838 213.835 21.6412 228.853 33.2246C244.344 45.1645 242.683 58.8863 235.797 76.9446C228.615 95.7753 221.196 92.8648 232.592 115.557C240.843 131.951 254.85 152.742 266.9 165.216C273.904 172.463 281.502 174.127 288.506 183.393C294.323 191.115 292.067 201.214 299.012 208.164C310.883 220.104 331.006 220.282 340.384 235.904C350.831 253.309 338.96 266.437 369.706 264.833C371.309 299.643 377.897 331.185 377.541 365.994C394.695 372.825 422.414 364.687 440.399 361.063C458.266 385.18 481.355 368.429 501.774 381.558C510.678 387.26 508.837 401.517 514.239 406.506C525.339 416.723 533.529 410.308 547.301 413.872C557.51 416.486 565.404 423.97 575.138 426.703C584.338 429.257 599.475 423.258 606.301 431.396C614.492 441.138 600.78 458.958 613.127 466.799C623.395 473.333 638.115 457.77 648.088 460.027C659.721 462.7 693.079 493.174 701.271 503.212C710.59 514.677 719.969 536.062 725.25 550.793C733.501 573.841 732.373 585.127 749.408 601.998C760.27 612.75 749.942 613.522 767.63 616.67C779.204 618.749 794.518 610.374 806.212 609.067C830.549 606.394 855.122 611.027 879.102 606.453C901.421 602.176 922.729 595.166 945.64 591.899C965.465 589.048 1000.37 591.246 1017.94 581.801C1036.99 571.643 1038.71 548.654 1011.17 552.932C1008.97 538.26 1018.77 518.003 1007.85 507.847C1023.04 487.056 1028.56 472.384 1030.93 446.959C1032 435.792 1032.48 423.436 1038 414.05C1043.4 404.783 1058.59 399.259 1061.56 391.299C1066.13 378.943 1058.83 373.419 1053.25 366.528C1049.69 362.073 1039.54 364.212 1036.63 360.291C1031.23 353.103 1036.57 345.678 1033.6 338.431C1024.94 317.462 1014.61 309.205 1008.08 285.444C1008.26 289.424 1008.44 293.463 1008.2 297.384" stroke="white" stroke-width="2" stroke-linecap="round" stroke-linejoin="round"/>
</g>
<path d="M729.114 205.939C720.546 229.321 740.614 237.526 756.675 252.807C761.434 257.336 761.888 264.817 756.879 269.342C746.107 279.074 705.264 264.917 707.854 277.745C710.53 290.994 745.061 309.531 746.618 310.799C760.284 321.932 764.735 350.174 757.208 365.658C751.852 376.676 716.342 372.962 705.172 369.293C632.024 345.266 664.985 348.131 582.817 340.67C576.527 340.099 569.935 339.806 563.894 341.65C557.671 343.549 557.869 351.339 559.957 355.55C566.876 369.506 597.849 393.178 589.514 411.523C586.956 417.152 580.963 420.707 578.264 426.27C576.151 430.627 576.385 435.772 575.445 440.523" stroke="white" stroke-width="2"/>
<path fill-rule="evenodd" clip-rule="evenodd" d="M573.5 448C577.09 448 580 445.09 580 441.5C580 437.91 577.09 435 573.5 435C569.91 435 567 437.91 567 441.5C567 445.09 569.91 448 573.5 448Z" fill="#4AF6CD"/>
<path fill-rule="evenodd" clip-rule="evenodd" d="M661 485C662.657 485 664 483.657 664 482C664 480.343 662.657 479 661 479C659.343 479 658 480.343 658 482C658 483.657 659.343 485 661 485Z" fill="#4AF6CD"/>
<path fill-rule="evenodd" clip-rule="evenodd" d="M725 593C726.657 593 728 591.657 728 590C728 588.343 726.657 587 725 587C723.343 587 722 588.343 722 590C722 591.657 723.343 593 725 593Z" fill="#4AF6CD"/>
<path fill-rule="evenodd" clip-rule="evenodd" d="M365 350C366.657 350 368 348.657 368 347C368 345.343 366.657 344 365 344C363.343 344 362 345.343 362 347C362 348.657 363.343 350 365 350Z" fill="#4AF6CD"/>
<path fill-rule="evenodd" clip-rule="evenodd" d="M729.5 213C733.09 213 736 210.09 736 206.5C736 202.91 733.09 200 729.5 200C725.91 200 723 202.91 723 206.5C723 210.09 725.91 213 729.5 213Z" fill="#4AF6CD"/>
<path d="M398.41 432.976L396.17 444H394.218L392.186 434.768L390.138 444H388.234L385.994 432.976H387.482L389.258 442.672L391.386 432.976H393.002L395.178 442.672L397.018 432.976H398.41ZM406.544 439.536C406.544 439.781 406.534 440.032 406.512 440.288H401.136C401.2 441.216 401.435 441.899 401.84 442.336C402.246 442.773 402.768 442.992 403.408 442.992C403.814 442.992 404.187 442.933 404.528 442.816C404.87 442.699 405.227 442.512 405.6 442.256L406.24 443.136C405.344 443.84 404.363 444.192 403.296 444.192C402.123 444.192 401.206 443.808 400.544 443.04C399.894 442.272 399.568 441.216 399.568 439.872C399.568 438.997 399.707 438.224 399.984 437.552C400.272 436.869 400.678 436.336 401.2 435.952C401.734 435.568 402.358 435.376 403.072 435.376C404.192 435.376 405.051 435.744 405.648 436.48C406.246 437.216 406.544 438.235 406.544 439.536ZM405.088 439.104C405.088 438.272 404.923 437.637 404.592 437.2C404.262 436.763 403.766 436.544 403.104 436.544C401.899 436.544 401.243 437.429 401.136 439.2H405.088V439.104ZM411.183 435.376C411.759 435.376 412.276 435.456 412.735 435.616C413.194 435.776 413.631 436.016 414.047 436.336L413.423 437.264C413.039 437.019 412.671 436.837 412.319 436.72C411.978 436.603 411.615 436.544 411.231 436.544C410.751 436.544 410.372 436.645 410.095 436.848C409.818 437.04 409.679 437.307 409.679 437.648C409.679 437.989 409.807 438.256 410.063 438.448C410.33 438.64 410.804 438.827 411.487 439.008C412.426 439.243 413.124 439.563 413.583 439.968C414.052 440.373 414.287 440.928 414.287 441.632C414.287 442.464 413.962 443.099 413.311 443.536C412.671 443.973 411.887 444.192 410.959 444.192C409.679 444.192 408.618 443.824 407.775 443.088L408.559 442.192C409.274 442.736 410.063 443.008 410.927 443.008C411.482 443.008 411.919 442.896 412.239 442.672C412.57 442.437 412.735 442.123 412.735 441.728C412.735 441.44 412.676 441.211 412.559 441.04C412.442 440.859 412.239 440.704 411.951 440.576C411.663 440.437 411.242 440.293 410.687 440.144C409.791 439.909 409.14 439.595 408.735 439.2C408.34 438.805 408.143 438.304 408.143 437.696C408.143 437.259 408.271 436.864 408.527 436.512C408.794 436.149 409.156 435.872 409.615 435.68C410.084 435.477 410.607 435.376 411.183 435.376ZM420.62 443.616C420.065 444 419.436 444.192 418.732 444.192C418.017 444.192 417.457 443.989 417.052 443.584C416.657 443.168 416.46 442.571 416.46 441.792V436.704H414.988V435.568H416.46V433.664L417.932 433.488V435.568H419.932L419.772 436.704H417.932V441.728C417.932 442.165 418.006 442.485 418.156 442.688C418.316 442.88 418.577 442.976 418.94 442.976C419.27 442.976 419.644 442.864 420.06 442.64L420.62 443.616ZM429.179 432.784C429.915 432.784 430.545 432.891 431.067 433.104C431.59 433.307 432.097 433.627 432.587 434.064L431.755 434.992C431.339 434.661 430.929 434.421 430.523 434.272C430.129 434.112 429.702 434.032 429.243 434.032C428.667 434.032 428.193 434.165 427.819 434.432C427.446 434.699 427.259 435.088 427.259 435.6C427.259 435.92 427.323 436.192 427.451 436.416C427.579 436.629 427.814 436.827 428.155 437.008C428.507 437.189 429.014 437.381 429.675 437.584C430.369 437.797 430.945 438.027 431.403 438.272C431.862 438.517 432.23 438.859 432.507 439.296C432.795 439.723 432.939 440.267 432.939 440.928C432.939 441.568 432.779 442.133 432.459 442.624C432.15 443.115 431.697 443.499 431.099 443.776C430.513 444.053 429.814 444.192 429.003 444.192C427.478 444.192 426.23 443.717 425.259 442.768L426.091 441.84C426.539 442.203 426.993 442.48 427.451 442.672C427.91 442.853 428.422 442.944 428.987 442.944C429.67 442.944 430.235 442.779 430.683 442.448C431.131 442.107 431.355 441.616 431.355 440.976C431.355 440.613 431.286 440.315 431.147 440.08C431.009 439.835 430.769 439.616 430.427 439.424C430.097 439.232 429.611 439.04 428.971 438.848C427.841 438.507 427.014 438.096 426.491 437.616C425.969 437.136 425.707 436.485 425.707 435.664C425.707 435.109 425.851 434.613 426.139 434.176C426.438 433.739 426.849 433.397 427.371 433.152C427.905 432.907 428.507 432.784 429.179 432.784ZM439.066 435.376C439.834 435.376 440.431 435.605 440.858 436.064C441.295 436.523 441.514 437.152 441.514 437.952V444H440.042V438.16C440.042 437.563 439.925 437.141 439.69 436.896C439.466 436.651 439.135 436.528 438.698 436.528C438.261 436.528 437.871 436.656 437.53 436.912C437.189 437.168 436.869 437.531 436.57 438V444H435.098V432.192L436.57 432.032V436.736C437.231 435.829 438.063 435.376 439.066 435.376ZM447.641 435.376C448.825 435.376 449.742 435.771 450.393 436.56C451.054 437.349 451.385 438.421 451.385 439.776C451.385 440.651 451.236 441.424 450.937 442.096C450.638 442.757 450.206 443.275 449.641 443.648C449.076 444.011 448.404 444.192 447.625 444.192C446.441 444.192 445.518 443.797 444.857 443.008C444.196 442.219 443.865 441.147 443.865 439.792C443.865 438.917 444.014 438.149 444.313 437.488C444.612 436.816 445.044 436.299 445.609 435.936C446.174 435.563 446.852 435.376 447.641 435.376ZM447.641 436.56C446.18 436.56 445.449 437.637 445.449 439.792C445.449 441.936 446.174 443.008 447.625 443.008C449.076 443.008 449.801 441.931 449.801 439.776C449.801 437.632 449.081 436.56 447.641 436.56ZM457.481 435.376C457.78 435.376 458.057 435.408 458.313 435.472L458.041 436.912C457.785 436.848 457.54 436.816 457.305 436.816C456.782 436.816 456.361 437.008 456.041 437.392C455.721 437.776 455.47 438.373 455.289 439.184V444H453.817V435.568H455.081L455.225 437.28C455.449 436.651 455.753 436.176 456.137 435.856C456.521 435.536 456.969 435.376 457.481 435.376ZM465.872 439.536C465.872 439.781 465.862 440.032 465.84 440.288H460.464C460.528 441.216 460.763 441.899 461.168 442.336C461.574 442.773 462.096 442.992 462.736 442.992C463.142 442.992 463.515 442.933 463.856 442.816C464.198 442.699 464.555 442.512 464.928 442.256L465.568 443.136C464.672 443.84 463.691 444.192 462.624 444.192C461.451 444.192 460.534 443.808 459.872 443.04C459.222 442.272 458.896 441.216 458.896 439.872C458.896 438.997 459.035 438.224 459.312 437.552C459.6 436.869 460.006 436.336 460.528 435.952C461.062 435.568 461.686 435.376 462.4 435.376C463.52 435.376 464.379 435.744 464.976 436.48C465.574 437.216 465.872 438.235 465.872 439.536ZM464.416 439.104C464.416 438.272 464.251 437.637 463.92 437.2C463.59 436.763 463.094 436.544 462.432 436.544C461.227 436.544 460.571 437.429 460.464 439.2H464.416V439.104ZM474.41 431.184V445.568H474.058V431.184H474.41ZM493.237 444H491.765L491.381 439.024C491.221 437.072 491.131 435.573 491.109 434.528L488.725 442.752H487.301L484.789 434.512C484.789 435.845 484.72 437.387 484.581 439.136L484.213 444H482.773L483.685 432.976H485.733L488.053 440.992L490.261 432.976H492.325L493.237 444ZM501.434 442.032C501.434 442.373 501.493 442.629 501.61 442.8C501.728 442.96 501.904 443.083 502.138 443.168L501.802 444.192C501.365 444.139 501.013 444.016 500.746 443.824C500.48 443.632 500.282 443.333 500.154 442.928C499.589 443.771 498.752 444.192 497.642 444.192C496.81 444.192 496.154 443.957 495.674 443.488C495.194 443.019 494.954 442.405 494.954 441.648C494.954 440.752 495.274 440.064 495.914 439.584C496.565 439.104 497.482 438.864 498.666 438.864H499.962V438.24C499.962 437.643 499.818 437.216 499.53 436.96C499.242 436.704 498.8 436.576 498.202 436.576C497.584 436.576 496.826 436.725 495.93 437.024L495.562 435.952C496.608 435.568 497.578 435.376 498.474 435.376C499.466 435.376 500.208 435.621 500.698 436.112C501.189 436.592 501.434 437.28 501.434 438.176V442.032ZM497.978 443.088C498.821 443.088 499.482 442.651 499.962 441.776V439.84H498.858C497.301 439.84 496.522 440.416 496.522 441.568C496.522 442.069 496.645 442.448 496.89 442.704C497.136 442.96 497.498 443.088 497.978 443.088ZM505.981 444.192C505.437 444.192 505.005 444.032 504.685 443.712C504.376 443.381 504.221 442.923 504.221 442.336V432.176L505.693 432V442.304C505.693 442.539 505.731 442.709 505.805 442.816C505.891 442.923 506.029 442.976 506.221 442.976C506.424 442.976 506.605 442.944 506.765 442.88L507.149 443.904C506.797 444.096 506.408 444.192 505.981 444.192ZM510.461 435.568V444H508.989V435.568H510.461ZM509.709 431.52C510.018 431.52 510.269 431.616 510.461 431.808C510.653 432 510.749 432.24 510.749 432.528C510.749 432.816 510.653 433.056 510.461 433.248C510.269 433.429 510.018 433.52 509.709 433.52C509.41 433.52 509.165 433.429 508.973 433.248C508.781 433.056 508.685 432.816 508.685 432.528C508.685 432.24 508.781 432 508.973 431.808C509.165 431.616 509.41 431.52 509.709 431.52ZM517.36 435.376C518.32 435.376 519.083 435.765 519.648 436.544C520.214 437.312 520.496 438.389 520.496 439.776C520.496 440.651 520.363 441.424 520.096 442.096C519.83 442.757 519.446 443.275 518.944 443.648C518.443 444.011 517.856 444.192 517.184 444.192C516.299 444.192 515.552 443.819 514.944 443.072L514.8 444H513.504V432.176L514.976 432V436.624C515.584 435.792 516.379 435.376 517.36 435.376ZM516.832 443.024C517.483 443.024 517.99 442.763 518.352 442.24C518.726 441.707 518.912 440.885 518.912 439.776C518.912 438.635 518.742 437.813 518.4 437.312C518.059 436.8 517.574 436.544 516.944 436.544C516.198 436.544 515.542 436.981 514.976 437.856V441.888C515.2 442.24 515.472 442.517 515.792 442.72C516.123 442.923 516.47 443.024 516.832 443.024ZM529.276 444H528.012L527.9 442.688C527.58 443.211 527.212 443.595 526.796 443.84C526.38 444.075 525.874 444.192 525.276 444.192C524.54 444.192 523.964 443.968 523.548 443.52C523.132 443.072 522.924 442.437 522.924 441.616V435.568H524.396V441.456C524.396 442.032 524.498 442.443 524.7 442.688C524.903 442.923 525.234 443.04 525.692 443.04C526.514 443.04 527.218 442.555 527.804 441.584V435.568H529.276V444ZM532.701 441.968C533.021 441.968 533.288 442.075 533.501 442.288C533.714 442.501 533.821 442.763 533.821 443.072C533.821 443.403 533.725 443.781 533.533 444.208L532.461 446.656H531.405L532.045 444C531.906 443.893 531.794 443.76 531.709 443.6C531.634 443.44 531.597 443.264 531.597 443.072C531.597 442.763 531.704 442.501 531.917 442.288C532.13 442.075 532.392 441.968 532.701 441.968ZM544.331 432.784C544.992 432.784 545.547 432.869 545.995 433.04C546.454 433.211 546.918 433.488 547.387 433.872L546.555 434.848C545.883 434.304 545.174 434.032 544.427 434.032C543.51 434.032 542.768 434.384 542.203 435.088C541.648 435.792 541.371 436.923 541.371 438.48C541.371 439.995 541.648 441.115 542.203 441.84C542.758 442.555 543.494 442.912 544.411 442.912C544.88 442.912 545.291 442.832 545.643 442.672C545.995 442.512 546.368 442.288 546.763 442L547.515 442.96C547.174 443.312 546.736 443.605 546.203 443.84C545.67 444.075 545.056 444.192 544.363 444.192C543.467 444.192 542.667 443.973 541.963 443.536C541.27 443.088 540.726 442.437 540.331 441.584C539.947 440.72 539.755 439.685 539.755 438.48C539.755 437.275 539.958 436.245 540.363 435.392C540.768 434.528 541.318 433.877 542.011 433.44C542.704 433.003 543.478 432.784 544.331 432.784ZM555.3 444L554.468 441.232H550.292L549.46 444H547.924L551.46 432.976H553.38L556.9 444H555.3ZM550.66 440H554.1L552.388 434.24L550.66 440Z" fill="white"/>
<path d="M598.378 197.784C599.039 197.784 599.594 197.869 600.042 198.04C600.501 198.211 600.965 198.488 601.434 198.872L600.602 199.848C599.93 199.304 599.221 199.032 598.474 199.032C597.557 199.032 596.815 199.384 596.25 200.088C595.695 200.792 595.418 201.923 595.418 203.48C595.418 204.995 595.695 206.115 596.25 206.84C596.805 207.555 597.541 207.912 598.458 207.912C598.927 207.912 599.338 207.832 599.69 207.672C600.042 207.512 600.415 207.288 600.81 207L601.562 207.96C601.221 208.312 600.783 208.605 600.25 208.84C599.717 209.075 599.103 209.192 598.41 209.192C597.514 209.192 596.714 208.973 596.01 208.536C595.317 208.088 594.773 207.437 594.378 206.584C593.994 205.72 593.802 204.685 593.802 203.48C593.802 202.275 594.005 201.245 594.41 200.392C594.815 199.528 595.365 198.877 596.058 198.44C596.751 198.003 597.525 197.784 598.378 197.784ZM609.401 209H608.137L608.025 207.688C607.705 208.211 607.337 208.595 606.921 208.84C606.505 209.075 605.999 209.192 605.401 209.192C604.665 209.192 604.089 208.968 603.673 208.52C603.257 208.072 603.049 207.437 603.049 206.616V200.568H604.521V206.456C604.521 207.032 604.623 207.443 604.825 207.688C605.028 207.923 605.359 208.04 605.817 208.04C606.639 208.04 607.343 207.555 607.929 206.584V200.568H609.401V209ZM616.106 200.376C616.405 200.376 616.682 200.408 616.938 200.472L616.666 201.912C616.41 201.848 616.165 201.816 615.93 201.816C615.407 201.816 614.986 202.008 614.666 202.392C614.346 202.776 614.095 203.373 613.914 204.184V209H612.442V200.568H613.706L613.85 202.28C614.074 201.651 614.378 201.176 614.762 200.856C615.146 200.536 615.594 200.376 616.106 200.376ZM622.278 200.376C622.576 200.376 622.854 200.408 623.11 200.472L622.838 201.912C622.582 201.848 622.336 201.816 622.102 201.816C621.579 201.816 621.158 202.008 620.838 202.392C620.518 202.776 620.267 203.373 620.086 204.184V209H618.614V200.568H619.878L620.022 202.28C620.246 201.651 620.55 201.176 620.934 200.856C621.318 200.536 621.766 200.376 622.278 200.376ZM630.669 204.536C630.669 204.781 630.659 205.032 630.637 205.288H625.261C625.325 206.216 625.56 206.899 625.965 207.336C626.371 207.773 626.893 207.992 627.533 207.992C627.939 207.992 628.312 207.933 628.653 207.816C628.995 207.699 629.352 207.512 629.725 207.256L630.365 208.136C629.469 208.84 628.488 209.192 627.421 209.192C626.248 209.192 625.331 208.808 624.669 208.04C624.019 207.272 623.693 206.216 623.693 204.872C623.693 203.997 623.832 203.224 624.109 202.552C624.397 201.869 624.803 201.336 625.325 200.952C625.859 200.568 626.483 200.376 627.197 200.376C628.317 200.376 629.176 200.744 629.773 201.48C630.371 202.216 630.669 203.235 630.669 204.536ZM629.213 204.104C629.213 203.272 629.048 202.637 628.717 202.2C628.387 201.763 627.891 201.544 627.229 201.544C626.024 201.544 625.368 202.429 625.261 204.2H629.213V204.104ZM636.988 200.376C637.756 200.376 638.353 200.605 638.78 201.064C639.217 201.523 639.436 202.152 639.436 202.952V209H637.964V203.16C637.964 202.563 637.852 202.141 637.628 201.896C637.404 201.651 637.073 201.528 636.636 201.528C636.188 201.528 635.793 201.656 635.452 201.912C635.111 202.168 634.791 202.536 634.492 203.016V209H633.02V200.568H634.284L634.412 201.816C634.711 201.368 635.079 201.016 635.516 200.76C635.964 200.504 636.455 200.376 636.988 200.376ZM646.651 208.616C646.096 209 645.467 209.192 644.763 209.192C644.048 209.192 643.488 208.989 643.083 208.584C642.688 208.168 642.491 207.571 642.491 206.792V201.704H641.019V200.568H642.491V198.664L643.963 198.488V200.568H645.963L645.803 201.704H643.963V206.728C643.963 207.165 644.038 207.485 644.187 207.688C644.347 207.88 644.608 207.976 644.971 207.976C645.302 207.976 645.675 207.864 646.091 207.64L646.651 208.616ZM654.011 197.976V207.672H658.539L658.363 209H652.491V197.976H654.011ZM663.141 200.376C664.325 200.376 665.242 200.771 665.893 201.56C666.554 202.349 666.885 203.421 666.885 204.776C666.885 205.651 666.736 206.424 666.437 207.096C666.138 207.757 665.706 208.275 665.141 208.648C664.576 209.011 663.904 209.192 663.125 209.192C661.941 209.192 661.018 208.797 660.357 208.008C659.696 207.219 659.365 206.147 659.365 204.792C659.365 203.917 659.514 203.149 659.813 202.488C660.112 201.816 660.544 201.299 661.109 200.936C661.674 200.563 662.352 200.376 663.141 200.376ZM663.141 201.56C661.68 201.56 660.949 202.637 660.949 204.792C660.949 206.936 661.674 208.008 663.125 208.008C664.576 208.008 665.301 206.931 665.301 204.776C665.301 202.632 664.581 201.56 663.141 201.56ZM672.389 200.376C672.89 200.376 673.349 200.451 673.765 200.6C674.181 200.739 674.581 200.968 674.965 201.288L674.261 202.216C673.962 202.003 673.669 201.848 673.381 201.752C673.104 201.645 672.794 201.592 672.453 201.592C671.77 201.592 671.237 201.864 670.853 202.408C670.48 202.952 670.293 203.757 670.293 204.824C670.293 205.891 670.48 206.68 670.853 207.192C671.226 207.693 671.76 207.944 672.453 207.944C672.784 207.944 673.088 207.896 673.365 207.8C673.642 207.693 673.952 207.528 674.293 207.304L674.965 208.264C674.197 208.883 673.338 209.192 672.389 209.192C671.248 209.192 670.346 208.808 669.685 208.04C669.034 207.272 668.709 206.211 668.709 204.856C668.709 203.96 668.858 203.176 669.157 202.504C669.456 201.832 669.877 201.309 670.421 200.936C670.976 200.563 671.632 200.376 672.389 200.376ZM682.481 207.032C682.481 207.373 682.54 207.629 682.657 207.8C682.775 207.96 682.951 208.083 683.185 208.168L682.849 209.192C682.412 209.139 682.06 209.016 681.793 208.824C681.527 208.632 681.329 208.333 681.201 207.928C680.636 208.771 679.799 209.192 678.689 209.192C677.857 209.192 677.201 208.957 676.721 208.488C676.241 208.019 676.001 207.405 676.001 206.648C676.001 205.752 676.321 205.064 676.961 204.584C677.612 204.104 678.529 203.864 679.713 203.864H681.009V203.24C681.009 202.643 680.865 202.216 680.577 201.96C680.289 201.704 679.847 201.576 679.249 201.576C678.631 201.576 677.873 201.725 676.977 202.024L676.609 200.952C677.655 200.568 678.625 200.376 679.521 200.376C680.513 200.376 681.255 200.621 681.745 201.112C682.236 201.592 682.481 202.28 682.481 203.176V207.032ZM679.025 208.088C679.868 208.088 680.529 207.651 681.009 206.776V204.84H679.905C678.348 204.84 677.569 205.416 677.569 206.568C677.569 207.069 677.692 207.448 677.937 207.704C678.183 207.96 678.545 208.088 679.025 208.088ZM689.76 208.616C689.206 209 688.576 209.192 687.872 209.192C687.158 209.192 686.598 208.989 686.192 208.584C685.798 208.168 685.6 207.571 685.6 206.792V201.704H684.128V200.568H685.6V198.664L687.072 198.488V200.568H689.072L688.912 201.704H687.072V206.728C687.072 207.165 687.147 207.485 687.296 207.688C687.456 207.88 687.718 207.976 688.08 207.976C688.411 207.976 688.784 207.864 689.2 207.64L689.76 208.616ZM692.758 200.568V209H691.286V200.568H692.758ZM692.006 196.52C692.315 196.52 692.566 196.616 692.758 196.808C692.95 197 693.046 197.24 693.046 197.528C693.046 197.816 692.95 198.056 692.758 198.248C692.566 198.429 692.315 198.52 692.006 198.52C691.707 198.52 691.462 198.429 691.27 198.248C691.078 198.056 690.982 197.816 690.982 197.528C690.982 197.24 691.078 197 691.27 196.808C691.462 196.616 691.707 196.52 692.006 196.52ZM698.969 200.376C700.153 200.376 701.071 200.771 701.721 201.56C702.383 202.349 702.713 203.421 702.713 204.776C702.713 205.651 702.564 206.424 702.265 207.096C701.967 207.757 701.535 208.275 700.969 208.648C700.404 209.011 699.732 209.192 698.953 209.192C697.769 209.192 696.847 208.797 696.185 208.008C695.524 207.219 695.193 206.147 695.193 204.792C695.193 203.917 695.343 203.149 695.641 202.488C695.94 201.816 696.372 201.299 696.937 200.936C697.503 200.563 698.18 200.376 698.969 200.376ZM698.969 201.56C697.508 201.56 696.777 202.637 696.777 204.792C696.777 206.936 697.503 208.008 698.953 208.008C700.404 208.008 701.129 206.931 701.129 204.776C701.129 202.632 700.409 201.56 698.969 201.56ZM709.113 200.376C709.881 200.376 710.478 200.605 710.905 201.064C711.342 201.523 711.561 202.152 711.561 202.952V209H710.089V203.16C710.089 202.563 709.977 202.141 709.753 201.896C709.529 201.651 709.198 201.528 708.761 201.528C708.313 201.528 707.918 201.656 707.577 201.912C707.236 202.168 706.916 202.536 706.617 203.016V209H705.145V200.568H706.409L706.537 201.816C706.836 201.368 707.204 201.016 707.641 200.76C708.089 200.504 708.58 200.376 709.113 200.376Z" fill="white"/>
</svg>
